<svg fill="none" height="23" viewBox="0 0 20 23" width="20" xmlns="http://www.w3.org/2000/svg">
<path d="M13.6009 3.66826C14.0356 3.16721 14.3671 2.58522 14.5763 1.95572C14.7854 1.32621 14.8682 0.661583 14.8198 0C13.4852 0.107733 12.2463 0.735441 11.37 1.74788C10.9504 2.23312 10.6324 2.79763 10.4349 3.40796C10.2374 4.0183 10.1644 4.66207 10.2201 5.30115C10.8711 5.30657 11.5147 5.16212 12.1009 4.87896C12.6872 4.59581 13.2004 4.18155 13.6009 3.66826ZM16.4987 12.2237C16.5064 11.3425 16.7385 10.4779 17.1731 9.71134C17.6077 8.94478 18.2304 8.30159 18.9825 7.84248C18.5079 7.15855 17.8804 6.59462 17.1498 6.19541C16.4193 5.79621 15.6058 5.57271 14.7738 5.54263C12.9799 5.35864 11.324 6.58906 10.3696 6.58906C9.41517 6.58906 8.06976 5.56563 6.57486 5.58863C5.59757 5.62082 4.64531 5.90576 3.81095 6.41564C2.9766 6.92552 2.28864 7.64295 1.81417 8.49794C-0.209693 12.0167 1.29671 17.2489 3.32057 20.0892C4.24051 21.4806 5.39043 23.056 6.90833 22.9985C8.42623 22.941 8.9207 22.0555 10.6801 22.0555C12.4395 22.0555 12.9799 22.9985 14.4748 22.964C15.9697 22.9295 17.0277 21.5381 17.9936 20.1467C18.6779 19.1365 19.2124 18.0326 19.5805 16.8694C18.6691 16.4807 17.8916 15.8336 17.3439 15.008C16.7962 14.1824 16.5024 13.2144 16.4987 12.2237Z" fill="black"/>
</svg>
