<svg fill="none" height="24" viewBox="0 0 24 24" width="24" xmlns="http://www.w3.org/2000/svg">
<path d="M6.3246 12.7824H8.95538V23.6129C8.95538 23.8267 9.12865 24 9.34248 24H13.8031C14.0169 24 14.1902 23.8267 14.1902 23.6129V12.8334H17.2145C17.4111 12.8334 17.5766 12.6859 17.599 12.4905L18.0583 8.50328C18.071 8.39357 18.0362 8.28372 17.9628 8.20142C17.8893 8.11905 17.7842 8.0719 17.6739 8.0719H14.1903V5.57249C14.1903 4.81905 14.596 4.43698 15.3962 4.43698C15.5102 4.43698 17.6739 4.43698 17.6739 4.43698C17.8877 4.43698 18.061 4.26364 18.061 4.04988V0.389961C18.061 0.176129 17.8877 0.00286452 17.6739 0.00286452H14.5349C14.5128 0.00178065 14.4636 0 14.3911 0C13.8465 0 11.9534 0.106916 10.4579 1.48266C8.80101 3.0072 9.03133 4.83259 9.08638 5.14908V8.07182H6.3246C6.11076 8.07182 5.9375 8.24508 5.9375 8.45892V12.3952C5.9375 12.6091 6.11076 12.7824 6.3246 12.7824Z" fill="black"/>
</svg>
