<svg fill="none" height="24" viewBox="0 0 24 24" width="24" xmlns="http://www.w3.org/2000/svg">
<path d="M22.5677 12.2524C22.5677 11.5047 22.507 10.7529 22.3777 10.0173H12V14.2531H17.9428C17.6962 15.6192 16.9038 16.8277 15.7436 17.5956V20.344H19.289C21.371 18.4282 22.5677 15.599 22.5677 12.2524Z" fill="#1A1D29"/>
<path d="M11.996 22.9993C14.9633 22.9993 17.4658 22.0252 19.289 20.3438L15.7436 17.5955C14.7571 18.2664 13.4837 18.6463 12 18.6463C9.12967 18.6463 6.69595 16.7103 5.82273 14.1074H2.16406V16.9407C4.0318 20.6551 7.836 22.9993 11.996 22.9993Z" fill="#1A1D29"/>
<path d="M5.82499 14.1085C5.36412 12.7424 5.36412 11.2631 5.82499 9.89699V7.06372H2.17037C0.609877 10.1718 0.609877 13.8337 2.17037 16.9418L5.82499 14.1085Z" fill="#1A1D29"/>
<path d="M11.996 5.35274C13.5645 5.32849 15.0806 5.91858 16.2166 7.00177L19.3578 3.86133C17.3687 1.99404 14.7288 0.967431 11.996 0.999765C7.836 0.999765 4.0318 3.34398 2.16406 7.0624L5.81868 9.89567C6.68787 7.28874 9.12563 5.35274 11.996 5.35274Z" fill="#1A1D29"/>
</svg>
